<?xml version="1.0" standalone="no"?>
<!DOCTYPE svg PUBLIC "-//W3C//DTD SVG 20010904//EN"
 "http://www.w3.org/TR/2001/REC-SVG-20010904/DTD/svg10.dtd">
<svg version="1.0" xmlns="http://www.w3.org/2000/svg"
 width="512.000000pt" height="512.000000pt" viewBox="0 0 512.000000 512.000000"
 preserveAspectRatio="xMidYMid meet">

<g transform="translate(0.000000,512.000000) scale(0.100000,-0.100000)"
fill="#000000" stroke="none">
<path d="M1941 4934 c-127 -34 -228 -122 -286 -248 -40 -88 -60 -99 -149 -84
-110 19 -223 -20 -302 -104 -70 -74 -89 -126 -89 -233 0 -87 1 -93 43 -167 23
-42 42 -87 42 -98 0 -36 -50 -76 -105 -84 -227 -34 -427 -223 -481 -454 -12
-51 -14 -92 -9 -172 3 -58 7 -117 7 -132 1 -19 -15 -44 -51 -85 -96 -107 -137
-227 -129 -377 6 -106 34 -183 97 -272 23 -32 41 -68 41 -82 0 -16 -21 -46
-63 -90 -82 -86 -102 -116 -134 -199 -37 -94 -39 -236 -5 -336 30 -85 89 -174
150 -225 45 -38 142 -92 189 -107 45 -13 63 -51 63 -132 0 -254 178 -483 423
-546 74 -20 89 -33 111 -104 48 -155 155 -289 286 -357 94 -49 149 -66 251
-73 281 -19 543 170 613 444 15 56 16 256 14 2040 l-3 1978 -34 70 c-91 184
-297 281 -490 229z"/>
<path d="M2962 4928 c-39 -18 -60 -46 -178 -222 l-134 -201 0 -332 0 -333 134
0 c128 0 135 1 141 21 11 33 75 98 118 121 214 109 445 -118 343 -337 -54
-117 -195 -175 -313 -130 -55 21 -126 83 -143 125 l-12 30 -134 0 -134 0 0
-600 0 -600 274 0 275 0 20 -26 c29 -37 27 -85 -5 -115 l-26 -24 -269 -3 -269
-3 0 -124 0 -125 129 0 c71 0 141 -4 155 -10 31 -12 59 -63 50 -93 -3 -12 -16
-32 -27 -45 -19 -21 -28 -22 -164 -22 l-143 0 0 -215 0 -215 134 0 134 0 12
30 c17 42 88 104 143 125 87 33 205 6 269 -62 72 -76 89 -198 41 -294 -82
-160 -293 -186 -415 -51 -20 22 -39 49 -43 61 -6 20 -13 21 -140 21 l-133 0
-4 -287 -3 -288 97 -229 c53 -126 105 -238 115 -249 37 -41 91 -57 201 -57
l102 0 0 135 0 135 -37 19 c-156 80 -180 313 -43 421 131 104 314 64 393 -85
30 -57 30 -164 -1 -222 -26 -51 -87 -111 -119 -119 -23 -6 -23 -8 -23 -145 l0
-139 47 0 c26 0 65 9 87 20 25 12 125 104 256 235 l214 215 -132 133 c-138
140 -145 152 -117 206 16 32 33 41 77 41 27 0 51 -20 163 -130 l131 -130 66
68 67 67 -44 47 c-63 65 -61 123 3 157 34 18 71 5 120 -42 l42 -41 201 199
c216 215 259 265 259 302 l0 23 -344 0 -344 0 -12 -30 c-17 -41 -99 -115 -144
-130 -21 -7 -67 -10 -106 -8 -89 5 -152 42 -196 116 -54 89 -53 192 2 275 99
151 332 149 427 -4 l30 -49 348 0 349 0 0 210 0 210 -384 0 c-395 0 -437 4
-456 40 -18 34 -12 85 13 108 23 22 26 22 425 22 l402 0 0 130 0 130 -657 0
c-410 0 -672 4 -694 10 -88 25 -161 106 -181 201 -10 48 -18 64 -38 74 -104
54 -159 184 -126 297 50 174 256 242 400 132 143 -109 123 -343 -37 -426 -34
-17 -38 -23 -33 -46 4 -15 18 -37 32 -49 l25 -23 655 0 654 0 0 340 0 340
-348 0 -348 0 -34 -52 c-50 -74 -121 -112 -209 -112 -107 1 -188 50 -232 142
-63 131 -2 290 134 347 50 21 152 19 202 -4 43 -19 119 -95 130 -130 6 -21 7
-21 351 -21 l344 0 0 23 c0 37 -43 87 -259 302 l-201 199 -42 -41 c-49 -47
-86 -60 -120 -42 -64 34 -66 92 -3 157 l44 47 -67 67 -66 68 -131 -130 c-112
-110 -136 -130 -163 -130 -44 0 -61 9 -77 41 -28 54 -21 66 117 206 l132 133
-214 215 c-131 131 -231 223 -256 235 -22 11 -61 20 -87 20 l-47 0 0 -139 c0
-137 0 -139 23 -145 32 -8 93 -68 119 -119 31 -58 31 -165 1 -222 -79 -149
-262 -189 -393 -85 -137 108 -113 341 43 421 l37 19 0 135 0 135 -77 0 c-60 0
-88 -5 -121 -22z"/>
<path d="M3185 4495 c-66 -65 9 -173 92 -133 15 7 34 26 41 41 40 83 -68 158
-133 92z"/>
<path d="M3099 3811 c-17 -18 -29 -40 -29 -56 0 -38 50 -85 90 -85 44 0 80 39
80 85 0 79 -84 112 -141 56z"/>
<path d="M3782 3557 c-22 -23 -29 -68 -16 -102 4 -8 20 -23 36 -31 24 -12 36
-13 64 -4 40 13 54 35 54 83 0 69 -90 105 -138 54z"/>
<path d="M3290 3147 c-14 -7 -31 -25 -38 -41 -40 -82 68 -156 133 -91 42 41
31 105 -22 133 -27 15 -42 15 -73 -1z"/>
<path d="M3805 1698 c-51 -27 -62 -98 -22 -136 51 -48 137 -13 137 55 0 45 -9
62 -41 78 -33 18 -47 18 -74 3z"/>
<path d="M3099 1421 c-38 -39 -38 -74 1 -113 27 -26 36 -30 68 -25 70 12 97
92 47 142 -34 35 -78 33 -116 -4z"/>
<path d="M3205 758 c-76 -45 -49 -159 37 -158 105 1 116 147 12 165 -16 3 -38
0 -49 -7z"/>
</g>
</svg>
